<?xml version="1.0" encoding="utf-8"?>
<!-- Generator: Adobe Illustrator 28.1.0, SVG Export Plug-In . SVG Version: 6.00 Build 0)  -->
<svg version="1.1" id="wordmark" xmlns="http://www.w3.org/2000/svg" xmlns:xlink="http://www.w3.org/1999/xlink" x="0px" y="0px"
	 viewBox="0 0 1325.09 262.37" style="enable-background:new 0 0 1325.09 262.37;" xml:space="preserve">
<style type="text/css">
	.st0{fill:#ffffff;}
</style>
<g>
	<path class="st0" d="M292.71,256.23H0V6.14h97.51v170.82h195.2V256.23z"/>
	<path class="st0" d="M605.29,256.23h-292.7V6.14H605.3v64.01H410.1v32.01h195.2v57.87H410.1v32.01h195.2v64.19H605.29z"/>
	<path class="st0" d="M966.82,256.23H857.03L722.68,103.46v152.77h-97.51V6.14h134.16l109.79,132.49V6.14h97.69v250.09H966.82z"/>
	<path class="st0" d="M1087.84,88.57c0,3.6,3.07,6.33,9.21,8.19s14.45,3.2,24.93,4c10.48,0.81,22.3,1.52,35.45,2.14
		c14.14,0.62,28.9,1.52,44.29,2.7c15.38,1.18,30.36,3.1,44.94,5.77c14.57,2.67,27.75,6.51,39.54,11.54
		c11.79,5.02,21.21,11.66,28.29,19.91c7.07,8.25,10.61,18.64,10.61,31.17c0,14.27-3.04,26.49-9.12,36.66s-14.51,18.61-25.31,25.31
		s-23.32,12-37.59,15.91s-29.71,6.63-46.33,8.19c-16.62,1.55-33.74,2.33-51.36,2.33c-21.96,0-42.68-0.99-62.15-2.98
		c-19.48-1.99-36.84-6.02-52.1-12.1s-27.7-15.01-37.31-26.79c-9.61-11.78-15.66-27.29-18.14-46.52h102.16
		c3.72,6.45,8.93,11.44,15.63,14.98s14.48,5.99,23.35,7.35c8.87,1.37,18.39,2.05,28.56,2.05c7.56,0,15.32-0.37,23.26-1.12
		c7.94-0.74,15.26-2.01,21.96-3.81s12.1-4.28,16.19-7.44s6.14-7.16,6.14-12c0-3.72-3.07-6.48-9.21-8.28s-14.45-3.13-24.93-4
		c-10.49-0.87-22.3-1.61-35.45-2.23c-14.14-0.62-28.91-1.52-44.29-2.7s-30.36-3.1-44.94-5.77s-27.76-6.51-39.54-11.54
		c-11.79-5.02-21.21-11.63-28.28-19.82s-10.61-18.54-10.61-31.08c0-14.39,3.04-26.64,9.12-36.75s14.51-18.54,25.31-25.31
		c10.79-6.76,23.32-12.06,37.59-15.91c14.26-3.84,29.71-6.57,46.33-8.19c16.62-1.61,33.74-2.42,51.36-2.42
		c21.96,0,42.67,1.02,62.15,3.07c19.47,2.05,36.84,6.08,52.1,12.09c15.26,6.02,27.69,14.92,37.31,26.7
		c9.61,11.79,15.66,27.35,18.14,46.71h-102.16c-3.72-6.57-8.93-11.63-15.63-15.17s-14.48-5.95-23.35-7.26s-18.39-1.95-28.56-1.95
		c-7.57,0-15.32,0.34-23.26,1.02c-7.94,0.68-15.26,1.92-21.96,3.72s-12.1,4.28-16.19,7.44S1087.84,83.61,1087.84,88.57z"/>
</g>
</svg>
